<?xml version="1.0" standalone="no"?>
<!DOCTYPE svg PUBLIC "-//W3C//DTD SVG 20010904//EN"
 "http://www.w3.org/TR/2001/REC-SVG-20010904/DTD/svg10.dtd">
<svg version="1.0" xmlns="http://www.w3.org/2000/svg"
 width="742.000000pt" height="171.000000pt" viewBox="0 0 742.000000 171.000000"
 preserveAspectRatio="xMidYMid meet">

<g transform="translate(0.000000,171.000000) scale(0.100000,-0.100000)"
fill="#000000" stroke="none">
<path d="M5630 1490 l0 -190 35 0 35 0 0 151 0 150 38 -3 37 -3 5 -86 5 -85
32 8 32 8 3 78 3 77 35 0 35 0 3 -147 3 -148 34 0 35 0 0 160 c0 156 -1 162
-24 185 -30 30 -84 40 -129 26 -24 -8 -42 -9 -61 -1 -15 5 -56 10 -92 10 l-64
0 0 -190z"/>
<path d="M6124 1665 c-48 -25 -54 -50 -54 -215 l0 -150 35 0 35 0 0 54 0 55
54 15 c30 9 57 16 60 16 3 0 6 -31 6 -70 l0 -70 41 0 40 0 -3 160 c-3 159 -3
160 -30 187 -23 23 -38 28 -90 30 -44 3 -73 -1 -94 -12z m131 -109 c0 -39 -1
-40 -50 -53 -67 -17 -65 -18 -65 26 0 66 6 72 64 69 l51 -3 0 -39z"/>
<path d="M6400 1490 l0 -190 35 0 35 0 0 55 c0 50 2 56 26 65 33 13 54 13 54
-1 0 -6 7 -35 16 -65 15 -53 16 -54 53 -54 l38 0 -20 75 -20 75 26 26 c23 22
27 36 27 81 0 30 -5 63 -11 75 -18 33 -71 48 -169 48 l-90 0 0 -190z m198 72
c4 -36 -12 -46 -89 -58 l-39 -7 0 52 0 52 63 -3 c62 -3 62 -3 65 -36z"/>
<path d="M6740 1640 l0 -40 45 0 45 0 0 -150 0 -150 35 0 35 0 0 150 0 150 45
0 45 0 0 40 0 40 -125 0 -125 0 0 -40z"/>
<path d="M574 1640 c-260 -89 -448 -249 -516 -435 -29 -81 -29 -216 0 -297 73
-202 280 -368 561 -452 l54 -16 -52 55 c-61 64 -90 125 -98 201 l-6 54 141 0
c137 0 141 -1 148 -22 16 -56 24 -58 206 -58 214 0 210 -3 206 138 -3 92 -4
97 -29 111 -25 14 -40 12 -184 -23 -176 -43 -232 -44 -310 -6 -57 28 -118 89
-147 148 -22 44 -23 59 -23 237 0 222 7 246 96 340 28 30 48 55 43 54 -5 0
-46 -13 -90 -29z"/>
<path d="M1401 1629 c62 -62 99 -150 102 -240 l2 -74 -140 0 -140 0 -3 45 c-6
78 -11 80 -208 80 l-173 0 -20 -26 c-19 -24 -21 -40 -21 -145 l0 -119 25 0
c14 0 85 14 157 31 156 37 244 37 318 -1 154 -79 217 -203 208 -410 -7 -137
-31 -201 -103 -275 -29 -30 -52 -55 -50 -55 16 0 153 49 212 76 109 49 201
114 276 193 308 326 127 757 -392 932 -47 16 -86 29 -88 29 -2 0 15 -18 38
-41z"/>
<path d="M2310 1208 c-93 -26 -140 -99 -148 -228 -5 -99 8 -156 44 -200 55
-65 118 -75 256 -39 76 19 81 19 99 3 13 -12 19 -31 19 -64 0 -70 -15 -83 -99
-88 -99 -6 -140 3 -151 34 -9 24 -13 25 -87 22 l-78 -3 3 -35 c5 -54 50 -120
101 -147 40 -21 57 -23 184 -23 132 0 143 1 183 25 60 35 95 98 102 180 9 116
-30 205 -106 244 -64 32 -90 33 -189 11 -51 -12 -100 -19 -108 -16 -11 4 -15
23 -15 71 0 95 13 105 133 105 101 0 127 -12 127 -58 0 -21 5 -22 80 -22 l80
0 0 28 c0 80 -52 160 -125 193 -32 15 -64 18 -155 18 -63 0 -131 -5 -150 -11z"/>
<path d="M2825 1208 c-3 -7 -4 -183 -3 -392 l3 -378 80 0 80 0 5 113 5 114 95
26 c142 41 129 52 132 -112 l3 -141 78 -1 77 -2 0 393 0 392 -80 0 -80 0 0
-164 c0 -148 -2 -165 -17 -170 -51 -15 -203 -56 -207 -56 -3 0 -7 87 -8 193
l-3 192 -78 3 c-56 2 -79 -1 -82 -10z"/>
<path d="M3616 1208 c-52 -14 -121 -82 -135 -133 -7 -25 -11 -152 -11 -337 l0
-296 80 -4 79 -3 3 114 3 114 105 29 c58 15 111 28 118 28 9 0 12 -35 12 -142
l0 -143 80 0 80 0 0 308 c0 335 -2 352 -58 410 -48 51 -78 60 -202 63 -63 2
-132 -2 -154 -8z m232 -164 c19 -13 22 -24 22 -84 l0 -69 -42 -11 c-24 -7 -74
-20 -113 -31 -38 -10 -73 -19 -77 -19 -5 0 -8 45 -8 99 0 124 6 131 120 131
52 0 82 -5 98 -16z"/>
<path d="M4850 1208 c-19 -5 -52 -14 -72 -19 l-38 -10 -2 -292 -3 -292 -48 -3
c-32 -2 -57 2 -73 13 -24 15 -24 17 -24 189 l0 174 -80 -20 -80 -20 0 -154 c0
-147 -1 -153 -22 -168 -29 -20 -77 -20 -106 0 -22 15 -22 17 -22 310 0 228 -3
294 -12 294 -7 0 -43 -8 -80 -17 l-68 -17 0 -294 c0 -323 2 -332 67 -394 41
-39 74 -48 171 -48 67 0 94 4 117 18 29 18 31 18 65 1 29 -15 62 -18 195 -20
l160 -1 3 391 c1 215 -1 391 -5 390 -5 0 -24 -5 -43 -11z"/>
<path d="M5138 1211 c-53 -17 -98 -53 -126 -99 l-27 -47 0 -313 0 -314 80 0
80 0 5 113 5 114 95 26 c142 41 129 52 132 -112 l3 -141 80 0 80 0 0 314 0
313 -28 47 c-18 31 -44 57 -75 75 -43 26 -56 28 -162 30 -63 1 -127 -2 -142
-6z m223 -161 c16 -9 19 -22 19 -85 0 -61 -3 -75 -17 -79 -53 -15 -203 -56
-207 -56 -4 0 -6 47 -6 105 0 88 3 106 18 114 22 14 168 14 193 1z"/>
<path d="M5630 828 l0 -393 77 2 78 1 5 117 5 118 42 12 c98 29 88 34 113 -58
11 -45 28 -105 36 -134 l14 -51 80 -4 c66 -2 80 0 80 12 0 8 -18 78 -39 155
l-38 140 40 34 c55 48 77 100 77 186 0 99 -15 143 -65 191 -58 56 -98 64 -319
64 l-186 0 0 -392z m388 216 c18 -12 22 -25 22 -68 0 -68 -11 -77 -125 -105
-49 -12 -98 -24 -107 -27 -16 -5 -18 5 -18 105 l0 111 103 0 c77 0 108 -4 125
-16z"/>
<path d="M6416 1208 c-53 -14 -121 -84 -136 -138 -7 -26 -10 -122 -8 -263 3
-258 9 -278 92 -334 l48 -33 169 0 169 0 0 80 0 80 -150 0 c-137 0 -150 2
-160 19 -23 45 -14 58 58 75 37 10 91 24 120 32 l52 15 0 80 c0 57 -4 79 -12
79 -7 -1 -59 -13 -115 -29 -57 -15 -105 -26 -108 -23 -3 3 -5 44 -5 92 0 121
-1 120 178 120 l142 0 0 80 0 80 -147 -1 c-82 -1 -166 -6 -187 -11z"/>
<path d="M6825 1208 c-3 -7 -4 -183 -3 -391 l3 -379 215 1 215 2 45 27 c33 20
53 42 73 82 26 50 28 63 25 136 -5 92 -33 154 -87 189 -31 20 -31 21 -31 106
0 109 -24 160 -95 204 -47 29 -51 30 -202 33 -121 3 -154 1 -158 -10z m276
-158 c16 -9 19 -22 19 -74 0 -39 -5 -67 -12 -73 -11 -9 -95 -33 -112 -33 -3 0
-6 43 -6 95 l0 95 46 0 c25 0 54 -5 65 -10z m129 -319 c16 -31 12 -102 -7
-123 -14 -15 -32 -18 -125 -18 l-109 0 3 57 3 58 90 22 c113 27 132 28 145 4z"/>
<path d="M911 631 c-16 -11 -6 -47 16 -55 16 -6 43 9 43 25 0 9 -29 39 -38 39
-4 0 -13 -4 -21 -9z"/>
<path d="M1103 623 c-34 -13 7 -78 44 -71 27 5 28 43 1 62 -24 17 -26 17 -45
9z"/>
<path d="M5210 207 c0 -30 -2 -56 -5 -58 -2 -3 -26 -3 -52 1 -46 5 -48 6 -45
35 2 22 0 27 -8 19 -6 -6 -12 -24 -13 -40 l-2 -29 223 -3 c156 -2 221 1 217 8
-4 6 -16 10 -28 8 -18 -2 -22 2 -22 22 0 21 4 25 28 22 15 -1 27 2 27 8 0 14
-63 13 -78 -2 -7 -7 -12 -22 -12 -33 0 -16 -6 -21 -22 -20 -21 1 -23 8 -26 58
-4 74 -20 74 -24 0 -3 -54 -5 -58 -28 -58 -21 0 -26 6 -28 33 -4 39 -22 43
-22 4 0 -36 -5 -40 -35 -34 -23 4 -25 9 -25 58 0 30 -4 54 -10 54 -5 0 -10
-24 -10 -53z"/>
<path d="M5710 245 c0 -8 5 -15 10 -15 6 0 10 7 10 15 0 8 -4 15 -10 15 -5 0
-10 -7 -10 -15z"/>
<path d="M6098 183 l-3 -78 -30 0 c-27 0 -30 3 -30 33 0 39 -12 42 -21 5 -9
-35 7 -57 43 -61 49 -5 63 18 63 104 0 98 -18 96 -22 -3z"/>
<path d="M6150 195 c0 -37 4 -65 10 -65 6 0 10 28 10 65 0 37 -4 65 -10 65 -6
0 -10 -28 -10 -65z"/>
<path d="M6640 205 l0 -55 -51 0 -51 0 6 31 c5 28 4 30 -10 19 -8 -8 -14 -25
-12 -39 l3 -26 228 -3 228 -2 -24 37 c-24 38 -65 53 -74 26 -3 -7 3 -9 16 -6
13 3 23 -2 30 -16 7 -12 9 -21 6 -22 -3 0 -29 -1 -57 -1 l-53 -1 -3 57 c-4 72
-22 74 -22 2 0 -49 -2 -54 -25 -58 -30 -6 -35 -2 -35 34 0 15 -4 28 -10 28 -5
0 -10 -13 -10 -30 0 -27 -3 -30 -30 -30 -30 0 -30 1 -30 55 0 30 -4 55 -10 55
-5 0 -10 -25 -10 -55z"/>
<path d="M6907 254 c-8 -8 1 -24 14 -24 5 0 9 7 9 15 0 15 -12 20 -23 9z"/>
<path d="M5149 238 c-1 -2 -3 -13 -4 -25 -2 -25 2 -28 25 -13 13 8 12 10 -2
10 -10 0 -18 4 -18 9 0 5 8 12 18 14 16 4 16 5 0 6 -10 0 -19 0 -19 -1z"/>
<path d="M6578 215 c-5 -26 6 -32 32 -15 13 8 12 10 -2 10 -21 0 -24 16 -5 23
7 4 6 6 -4 6 -10 1 -19 -9 -21 -24z"/>
<path d="M5690 206 c-6 -8 -10 -24 -8 -35 2 -11 0 -20 -4 -21 -43 -2 -48 1
-48 30 0 17 -4 30 -10 30 -5 0 -10 -25 -10 -55 0 -41 -4 -56 -17 -64 -17 -10
-17 -10 -1 -11 10 0 25 11 34 25 14 22 24 25 70 25 l54 0 0 39 c0 26 -5 41
-16 45 -23 9 -30 8 -44 -8z m45 -27 c8 -25 1 -34 -20 -26 -19 8 -20 47 -1 47
8 0 18 -9 21 -21z"/>
<path d="M6265 206 c-18 -13 -18 -15 -2 -40 10 -14 13 -26 8 -26 -19 0 -32
-39 -22 -59 11 -19 55 -33 78 -24 23 9 14 18 -18 19 -42 2 -58 19 -36 41 12
12 31 16 74 14 32 -1 65 -7 75 -12 14 -8 19 -5 23 14 7 26 -9 77 -24 77 -5 0
-19 -12 -31 -27 -22 -29 -49 -44 -63 -36 -5 3 -1 13 8 23 15 16 15 19 0 34
-20 20 -45 20 -70 2z m55 -19 c0 -7 -5 -18 -12 -25 -9 -9 -14 -7 -24 6 -19 25
-17 32 11 32 14 0 25 -6 25 -13z m108 -31 c3 -12 -1 -17 -10 -14 -7 3 -15 13
-16 22 -3 12 1 17 10 14 7 -3 15 -13 16 -22z"/>
<path d="M5803 198 c-24 -12 -38 -41 -28 -58 3 -5 17 -10 31 -10 28 0 32 -24
7 -39 -17 -10 -17 -10 -1 -11 10 0 25 11 34 25 13 20 25 25 55 25 39 0 39 0
39 40 0 22 -4 40 -10 40 -5 0 -10 -13 -10 -28 0 -36 -4 -40 -36 -34 -18 3 -27
13 -31 33 -6 31 -15 34 -50 17z m32 -34 c0 -13 -6 -18 -20 -16 -28 5 -30 9
-15 27 16 20 35 14 35 -11z"/>
<path d="M4990 140 c0 -5 5 -10 10 -10 6 0 10 5 10 10 0 6 -4 10 -10 10 -5 0
-10 -4 -10 -10z"/>
<path d="M5040 140 c0 -5 5 -10 10 -10 6 0 10 5 10 10 0 6 -4 10 -10 10 -5 0
-10 -4 -10 -10z"/>
<path d="M5270 90 c0 -5 5 -10 10 -10 6 0 10 5 10 10 0 6 -4 10 -10 10 -5 0
-10 -4 -10 -10z"/>
<path d="M5310 90 c0 -5 5 -10 10 -10 6 0 10 5 10 10 0 6 -4 10 -10 10 -5 0
-10 -4 -10 -10z"/>
<path d="M5900 90 c0 -5 5 -10 10 -10 6 0 10 5 10 10 0 6 -4 10 -10 10 -5 0
-10 -4 -10 -10z"/>
<path d="M6700 90 c0 -5 5 -10 10 -10 6 0 10 5 10 10 0 6 -4 10 -10 10 -5 0
-10 -4 -10 -10z"/>
<path d="M6740 90 c0 -5 5 -10 10 -10 6 0 10 5 10 10 0 6 -4 10 -10 10 -5 0
-10 -4 -10 -10z"/>
</g>
</svg>
